<!-- <?xml version="1.0" encoding="iso-8859-1"?>
<svg xmlns="http://www.w3.org/2000/svg" xmlns:xlink="http://www.w3.org/1999/xlink" version="1.1" id="Capa_1" x="0px" y="0px" viewBox="0 0 512 512" style="enable-background:new 0 0 512 512;" xml:space="preserve" width="512" height="512">
<g>
	<path style="fill:#EDF5FF;" d="M391,60v241l-90,60H15c-8.401,0-15-6.601-15-15V60l30-30h331L391,60z"/>
	<polygon style="fill:#D7E9FF;" points="391,60 391,301 301,361 196,361 196,30 361,30  "/>
	<path style="fill:#979FEF;" d="M225.099,170.799L196,258.1l-0.901,2.699c-2.399,7.8-10.8,12.001-18.898,9.3   c-7.8-2.399-12.001-11.1-9.3-18.9L196,163.9l0.901-2.701c2.399-7.8,10.8-11.999,18.898-9.3   C223.599,154.3,227.8,162.999,225.099,170.799z"/>
	<path style="fill:#979FEF;" d="M127.006,267.997l-60-45C63.227,220.17,61,215.717,61,211s2.227-9.17,6.006-11.997l60-45   c6.621-4.995,16.011-3.647,20.991,3.003c4.98,6.621,3.633,16.025-3.003,20.991L101.005,211l43.989,33.003   c6.636,4.966,7.983,14.37,3.003,20.991C143.049,271.616,133.65,272.98,127.006,267.997z"/>
	<path style="fill:#737EE6;" d="M244.003,264.994c-4.98-6.621-3.633-16.025,3.003-20.991L290.995,211l-43.989-33.003   c-6.636-4.966-7.983-14.37-3.003-20.991c4.995-6.636,14.385-7.954,20.991-3.003l60,45C328.773,201.83,331,206.283,331,211   s-2.227,9.17-6.006,11.997l-60,45C258.354,272.977,248.954,271.621,244.003,264.994z"/>
	<path style="fill:#737EE6;" d="M225.099,170.799L196,258.1v-94.2l0.901-2.701c2.399-7.8,10.8-11.999,18.898-9.3   C223.599,154.3,227.8,162.999,225.099,170.799z"/>
	<g>
		<path style="fill:#979FEF;" d="M504.442,414.399L465.5,392.5c0.899-5.4,1.5-10.8,1.5-16.5s-0.601-11.1-1.5-16.5l38.941-21.901    c7.202-4.2,9.6-13.5,5.7-20.7l-15-25.8c-4.199-7.2-13.499-9.6-20.7-5.7l-39.242,22.5c-8.401-7.2-18.701-12.599-29.2-16.5V256    c0-8.401-6.599-15-15-15h-30c-8.401,0-15,6.599-15,15v35.4c-10.499,3.9-19.799,9.3-28.2,16.5l-38.399-22.5    c-7.202-3.9-16.501-1.5-20.7,5.7l-15,25.8c-3.9,7.2-1.501,16.5,5.7,20.7L287.5,359.5c-0.899,5.4-1.5,10.8-1.5,16.5    s0.601,11.1,1.5,16.5l-38.099,21.899c-7.202,4.2-9.6,13.5-5.7,20.7l15,25.8c4.199,7.202,13.499,9.6,20.7,5.7l38.399-22.5    c8.401,7.202,17.701,12.601,28.2,16.501V497c0,8.399,6.599,15,15,15h30c8.401,0,15-6.601,15-15v-36.4    c10.499-3.9,20.799-9.3,29.2-16.501l39.242,22.5c7.202,3.9,16.501,1.501,20.7-5.7l15-25.8    C514.042,427.899,511.643,418.599,504.442,414.399z M376,421c-24.901,0-45-20.101-45-45c0-24.901,20.099-45,45-45s45,20.099,45,45    C421,400.899,400.901,421,376,421z"/>
	</g>
	<path style="fill:#737EE6;" d="M510.142,435.099l-15,25.8c-4.199,7.202-13.499,9.6-20.7,5.7l-39.242-22.5   C426.799,451.3,416.499,456.7,406,460.6V497c0,8.399-6.599,15-15,15h-15v-91c24.901,0,45-20.101,45-45c0-24.901-20.099-45-45-45   v-90h15c8.401,0,15,6.599,15,15v35.4c10.499,3.9,20.799,9.3,29.2,16.5l39.242-22.5c7.202-3.9,16.501-1.5,20.7,5.7l15,25.8   c3.9,7.2,1.501,16.5-5.7,20.7L465.5,359.5c0.899,5.4,1.5,10.8,1.5,16.5s-0.601,11.1-1.5,16.5l38.941,21.899   C511.643,418.599,514.042,427.899,510.142,435.099z"/>
	<path style="fill:#737EE6;" d="M301,0h75c8.284,0,15,6.716,15,15v45h-90l-30-30.937L301,0z"/>
	<path style="fill:#47568C;" d="M301,0v60H0V15C0,6.599,6.599,0,15,0H301z"/>
	<rect x="196" style="fill:#2C3B73;" width="105" height="60"/>
</g>
</svg> -->

<svg xmlns="http://www.w3.org/2000/svg" height="470.272pt" viewBox="0 0 470.272 470.272" width="470.272pt"><path d="m348.726562 108.886719h-301.359374c-4.414063 0-8-3.582031-8-8v-88.886719c0-4.414062 3.585937-8 8-8h301.351562c4.417969 0 8 3.585938 8 8v88.878906c.007812 4.425782-3.574219 8.007813-7.992188 8.007813zm0 0" fill="#52b8d9"/><path d="m348.71875 112.886719h-301.351562c-6.613282 0-12-5.382813-12-12v-88.886719c0-6.617188 5.386718-12 12-12h301.351562c6.617188 0 12 5.382812 12 12v88.878906c0 6.625-5.382812 12.007813-12 12.007813zm-301.351562-104.886719c-2.199219 0-4 1.792969-4 4v88.878906c0 2.210938 1.800781 4 4 4h301.351562c2.203125 0 4-1.789062 4-4v-88.878906c0-2.207031-1.796875-4-4-4zm0 0" fill="#63312d"/><path d="m313.359375 108.886719h-301.359375c-4.414062 0-8-3.582031-8-8v-88.886719c0-4.414062 3.585938-8 8-8h301.351562c4.417969 0 8 3.585938 8 8v88.878906c.007813 4.425782-3.574218 8.007813-7.992187 8.007813zm0 0" fill="#82d9ff"/><path d="m20 20h301.351562v-8c0-4.414062-3.582031-8-8-8h-301.351562c-4.414062 0-8 3.585938-8 8v88.878906c0 4.417969 3.585938 8 8 8h8zm0 0" fill="#caf4ff"/><path d="m313.351562 112.886719h-301.351562c-6.617188 0-12-5.382813-12-12v-88.886719c0-6.617188 5.382812-12 12-12h301.351562c6.617188 0 12 5.382812 12 12v88.878906c0 6.625-5.382812 12.007813-12 12.007813zm-301.351562-104.886719c-2.199219 0-4 1.792969-4 4v88.878906c0 2.210938 1.800781 4 4 4h301.351562c2.199219 0 4-1.789062 4-4v-88.878906c0-2.207031-1.800781-4-4-4zm0 0" fill="#63312d"/><path d="m79.3125 56.449219c0 10.480469-8.496094 18.976562-18.976562 18.976562-10.480469 0-18.976563-8.496093-18.976563-18.976562s8.496094-18.976563 18.976563-18.976563c10.480468 0 18.976562 8.496094 18.976562 18.976563zm0 0" fill="#f9dd9d"/><path d="m60.328125 79.414062c-12.664063 0-22.96875-10.300781-22.96875-22.972656s10.304687-22.976562 22.96875-22.976562c12.671875 0 22.976563 10.304687 22.976563 22.976562s-10.304688 22.972656-22.976563 22.972656zm0-37.941406c-8.25 0-14.96875 6.710938-14.96875 14.976563 0 8.261719 6.71875 14.976562 14.96875 14.976562 8.257813 0 14.976563-6.714843 14.976563-14.976562 0-8.265625-6.710938-14.976563-14.976563-14.976563zm0 0" fill="#63312d"/><path d="m134.199219 42.160156h154.738281v26.527344h-154.738281zm0 0" fill="#eee"/><path d="m288.9375 72.6875h-154.738281c-2.207031 0-4-1.792969-4-4v-26.527344c0-2.207031 1.792969-4 4-4h154.738281c2.207031 0 4 1.792969 4 4v26.527344c0 2.207031-1.792969 4-4 4zm-150.738281-8h146.738281v-18.527344h-146.738281zm0 0" fill="#0277bd"/><path d="m288.9375 72.6875h-154.738281c-2.207031 0-4-1.792969-4-4v-26.527344c0-2.207031 1.792969-4 4-4h154.738281c2.207031 0 4 1.792969 4 4v26.527344c0 2.207031-1.792969 4-4 4zm-150.738281-8h146.738281v-18.527344h-146.738281zm0 0" fill="#63312d"/><path d="m348.726562 244.023438h-301.359374c-4.414063 0-8-3.582032-8-8v-88.886719c0-4.417969 3.585937-8 8-8h301.351562c4.417969 0 8 3.582031 8 8v88.878906c.007812 4.425781-3.574219 8.007813-7.992188 8.007813zm0 0" fill="#52b8d9"/><path d="m348.71875 248.015625h-301.351562c-6.613282 0-12-5.382813-12-12v-88.878906c0-6.617188 5.386718-12 12-12h301.351562c6.617188 0 12 5.382812 12 12v88.878906c0 6.625-5.382812 12-12 12zm-301.351562-104.878906c-2.199219 0-4 1.792969-4 4v88.878906c0 2.207031 1.800781 4 4 4h301.351562c2.203125 0 4-1.792969 4-4v-88.878906c0-2.207031-1.796875-4-4-4zm0 0" fill="#63312d"/><path d="m313.359375 244.023438h-301.359375c-4.414062 0-8-3.582032-8-8v-88.886719c0-4.417969 3.585938-8 8-8h301.351562c4.417969 0 8 3.582031 8 8v88.878906c.007813 4.425781-3.574218 8.007813-7.992187 8.007813zm0 0" fill="#82d9ff"/><path d="m20 155.136719h301.351562v-8c0-4.417969-3.582031-8-8-8h-301.351562c-4.414062 0-8 3.582031-8 8v88.878906c0 4.417969 3.585938 8 8 8h8zm0 0" fill="#caf4ff"/><path d="m313.351562 248.015625h-301.351562c-6.617188 0-12-5.382813-12-12v-88.878906c0-6.617188 5.382812-12 12-12h301.351562c6.617188 0 12 5.382812 12 12v88.878906c0 6.625-5.382812 12-12 12zm-301.351562-104.878906c-2.199219 0-4 1.792969-4 4v88.878906c0 2.207031 1.800781 4 4 4h301.351562c2.199219 0 4-1.792969 4-4v-88.878906c0-2.207031-1.800781-4-4-4zm0 0" fill="#63312d"/><path d="m79.3125 191.574219c0 10.480469-8.496094 18.976562-18.976562 18.976562-10.480469 0-18.976563-8.496093-18.976563-18.976562 0-10.476563 8.496094-18.972657 18.976563-18.972657 10.480468 0 18.976562 8.496094 18.976562 18.972657zm0 0" fill="#f9dd9d"/><path d="m60.328125 214.550781c-12.664063 0-22.96875-10.3125-22.96875-22.976562 0-12.664063 10.304687-22.972657 22.96875-22.972657 12.671875 0 22.976563 10.300782 22.976563 22.972657s-10.304688 22.976562-22.976563 22.976562zm0-37.941406c-8.25 0-14.96875 6.710937-14.96875 14.976563 0 8.261718 6.71875 14.972656 14.96875 14.972656 8.257813 0 14.976563-6.71875 14.976563-14.972656 0-8.257813-6.710938-14.976563-14.976563-14.976563zm0 0" fill="#63312d"/><path d="m134.199219 177.296875h154.738281v26.527344h-154.738281zm0 0" fill="#eee"/><path d="m288.9375 207.816406h-154.738281c-2.207031 0-4-1.792968-4-4v-26.519531c0-2.207031 1.792969-4 4-4h154.738281c2.207031 0 4 1.792969 4 4v26.527344c0 2.207031-1.792969 3.992187-4 3.992187zm-150.738281-8h146.738281v-18.519531h-146.738281zm0 0" fill="#0277bd"/><path d="m288.9375 207.816406h-154.738281c-2.207031 0-4-1.792968-4-4v-26.519531c0-2.207031 1.792969-4 4-4h154.738281c2.207031 0 4 1.792969 4 4v26.527344c0 2.207031-1.792969 3.992187-4 3.992187zm-150.738281-8h146.738281v-18.519531h-146.738281zm0 0" fill="#63312d"/><path d="m348.726562 379.152344h-301.359374c-4.414063 0-8-3.585938-8-8v-88.878906c0-4.417969 3.585937-8 8-8h301.351562c4.417969 0 8 3.582031 8 8v88.878906c.007812 4.421875-3.574219 8-7.992188 8zm0 0" fill="#52b8d9"/><path d="m348.71875 383.152344h-301.351562c-6.613282 0-12-5.382813-12-12v-88.878906c0-6.617188 5.386718-12 12-12h301.351562c6.617188 0 12 5.382812 12 12v88.878906c0 6.625-5.382812 12-12 12zm-301.351562-104.878906c-2.199219 0-4 1.789062-4 4v88.878906c0 2.207031 1.800781 4 4 4h301.351562c2.203125 0 4-1.792969 4-4v-88.878906c0-2.210938-1.796875-4-4-4zm0 0" fill="#63312d"/><path d="m313.359375 379.152344h-301.359375c-4.414062 0-8-3.585938-8-8v-88.878906c0-4.417969 3.585938-8 8-8h301.351562c4.417969 0 8 3.582031 8 8v88.878906c.007813 4.421875-3.574218 8-7.992187 8zm0 0" fill="#82d9ff"/><path d="m20 290.273438h301.351562v-8c0-4.417969-3.582031-8-8-8h-301.351562c-4.414062 0-8 3.582031-8 8v88.878906c0 4.414062 3.585938 8 8 8h8zm0 0" fill="#caf4ff"/><path d="m313.351562 383.152344h-301.351562c-6.617188 0-12-5.382813-12-12v-88.878906c0-6.617188 5.382812-12 12-12h301.351562c6.617188 0 12 5.382812 12 12v88.878906c0 6.625-5.382812 12-12 12zm-301.351562-104.878906c-2.199219 0-4 1.789062-4 4v88.878906c0 2.207031 1.800781 4 4 4h301.351562c2.199219 0 4-1.792969 4-4v-88.878906c0-2.210938-1.800781-4-4-4zm0 0" fill="#63312d"/><path d="m79.3125 326.710938c0 10.480468-8.496094 18.976562-18.976562 18.976562-10.480469 0-18.976563-8.496094-18.976563-18.976562 0-10.480469 8.496094-18.976563 18.976563-18.976563 10.480468 0 18.976562 8.496094 18.976562 18.976563zm0 0" fill="#f9dd9d"/><path d="m60.328125 349.6875c-12.664063 0-22.96875-10.304688-22.96875-22.976562 0-12.671876 10.304687-22.976563 22.96875-22.976563 12.671875 0 22.976563 10.3125 22.976563 22.976563 0 12.664062-10.304688 22.976562-22.976563 22.976562zm0-37.953125c-8.25 0-14.96875 6.722656-14.96875 14.976563 0 8.257812 6.71875 14.976562 14.96875 14.976562 8.257813 0 14.976563-6.710938 14.976563-14.976562 0-8.261719-6.710938-14.976563-14.976563-14.976563zm0 0" fill="#63312d"/><path d="m134.199219 312.425781h154.738281v26.527344h-154.738281zm0 0" fill="#eee"/><path d="m288.9375 342.953125h-154.738281c-2.207031 0-4-1.792969-4-4v-26.519531c0-2.210938 1.792969-4 4-4h154.738281c2.207031 0 4 1.789062 4 4v26.519531c0 2.207031-1.792969 4-4 4zm-150.738281-8h146.738281v-18.519531h-146.738281zm0 0" fill="#0277bd"/><path d="m288.9375 342.953125h-154.738281c-2.207031 0-4-1.792969-4-4v-26.519531c0-2.210938 1.792969-4 4-4h154.738281c2.207031 0 4 1.789062 4 4v26.519531c0 2.207031-1.792969 4-4 4zm-150.738281-8h146.738281v-18.519531h-146.738281zm0 0" fill="#63312d"/><path d="m65.800781 108.886719h261.296875v30.25h-261.296875zm0 0" fill="#d1d1d1"/><path d="m327.105469 143.136719h-261.304688c-2.207031 0-4-1.792969-4-4v-30.25c0-2.207031 1.792969-4 4-4h261.304688c2.207031 0 4 1.792969 4 4v30.25c0 2.207031-1.792969 4-4 4zm-257.304688-8h253.304688v-22.25h-253.304688zm0 0" fill="#63312d"/><path d="m33.800781 108.886719h261.296875v30.25h-261.296875zm0 0" fill="#eee"/><path d="m295.105469 143.136719h-261.304688c-2.207031 0-4-1.792969-4-4v-30.25c0-2.207031 1.792969-4 4-4h261.304688c2.207031 0 4 1.792969 4 4v30.25c0 2.207031-1.792969 4-4 4zm-257.304688-8h253.304688v-22.25h-253.304688zm0 0" fill="#0277bd"/><path d="m295.105469 143.136719h-261.304688c-2.207031 0-4-1.792969-4-4v-30.25c0-2.207031 1.792969-4 4-4h261.304688c2.207031 0 4 1.792969 4 4v30.25c0 2.207031-1.792969 4-4 4zm-257.304688-8h253.304688v-22.25h-253.304688zm0 0" fill="#63312d"/><path d="m65.800781 244.023438h261.296875v30.25h-261.296875zm0 0" fill="#d1d1d1"/><path d="m327.105469 278.273438h-261.304688c-2.207031 0-4-1.792969-4-4v-30.257813c0-2.207031 1.792969-4 4-4h261.304688c2.207031 0 4 1.792969 4 4v30.257813c0 2.207031-1.792969 4-4 4zm-257.304688-8h253.304688v-22.257813h-253.304688zm0 0" fill="#63312d"/><path d="m33.800781 244.023438h261.296875v30.25h-261.296875zm0 0" fill="#eee"/><path d="m295.105469 278.273438h-261.304688c-2.207031 0-4-1.792969-4-4v-30.257813c0-2.207031 1.792969-4 4-4h261.304688c2.207031 0 4 1.792969 4 4v30.257813c0 2.207031-1.792969 4-4 4zm-257.304688-8h253.304688v-22.257813h-253.304688zm0 0" fill="#0277bd"/><path d="m295.105469 278.273438h-261.304688c-2.207031 0-4-1.792969-4-4v-30.257813c0-2.207031 1.792969-4 4-4h261.304688c2.207031 0 4 1.792969 4 4v30.257813c0 2.207031-1.792969 4-4 4zm-257.304688-8h253.304688v-22.257813h-253.304688zm0 0" fill="#63312d"/><path d="m450.273438 466.273438h-248.472657c-8.839843 0-16-7.160157-16-16v-203.136719c0-8.839844 7.160157-16 16-16h248.464844c8.839844 0 16 7.160156 16 16v203.136719c.007813 8.832031-7.160156 16-15.992187 16zm0 0" fill="#eee"/><path d="m450.273438 470.273438h-248.472657c-11.03125 0-20-8.976563-20-20v-203.136719c0-11.023438 8.96875-20 20-20h248.472657c11.03125 0 20 8.976562 20 20v203.136719c0 11.023437-8.96875 20-20 20zm-248.472657-235.136719c-6.617187 0-12 5.382812-12 12v203.136719c0 6.613281 5.382813 12 12 12h248.472657c6.613281 0 12-5.386719 12-12v-203.136719c0-6.617188-5.386719-12-12-12zm0 0" fill="#0277bd"/><path d="m450.273438 470.273438h-248.472657c-11.03125 0-20-8.976563-20-20v-203.136719c0-11.023438 8.96875-20 20-20h248.472657c11.03125 0 20 8.976562 20 20v203.136719c0 11.023437-8.96875 20-20 20zm-248.472657-235.136719c-6.617187 0-12 5.382812-12 12v203.136719c0 6.613281 5.382813 12 12 12h248.472657c6.613281 0 12-5.386719 12-12v-203.136719c0-6.617188-5.386719-12-12-12zm0 0" fill="#63312d"/><path d="m466.273438 277.800781v-30.664062c0-8.839844-7.160157-16-16-16h-248.472657c-8.839843 0-16 7.160156-16 16v30.664062zm0 0" fill="#f9a287"/><g fill="#63312d"><path d="m466.273438 281.800781h-280.472657c-2.207031 0-4-1.792969-4-4v-30.664062c0-11.023438 8.96875-20 20-20h248.472657c11.03125 0 20 8.976562 20 20v30.664062c0 2.214844-1.792969 4-4 4zm-276.472657-8h272.472657v-26.664062c0-6.617188-5.386719-12-12-12h-248.472657c-6.617187 0-12 5.382812-12 12zm0 0"/><path d="m247.105469 364.433594c-11.035157 0-20-8.976563-20-20v-16c0-11.027344 8.964843-20 20-20 11.03125 0 20 8.972656 20 20v16c0 11.023437-8.96875 20-20 20zm0-48c-6.617188 0-12 5.382812-12 12v16c0 6.613281 5.382812 12 12 12 6.613281 0 12-5.386719 12-12v-16c0-6.625-5.386719-12-12-12zm0 0"/><path d="m291.105469 360.433594h-8v-44h-8v-8h12c2.207031 0 4 1.789062 4 4zm0 0"/><path d="m327.105469 364.433594c-11.035157 0-20-8.976563-20-20v-16c0-11.027344 8.964843-20 20-20 11.03125 0 20 8.972656 20 20v16c0 11.023437-8.96875 20-20 20zm0-48c-6.617188 0-12 5.382812-12 12v16c0 6.613281 5.382812 12 12 12 6.613281 0 12-5.386719 12-12v-16c0-6.625-5.386719-12-12-12zm0 0"/><path d="m407.105469 364.433594c-11.035157 0-20-8.976563-20-20v-16c0-11.027344 8.964843-20 20-20 11.03125 0 20 8.972656 20 20v16c0 11.023437-8.96875 20-20 20zm0-48c-6.617188 0-12 5.382812-12 12v16c0 6.613281 5.382812 12 12 12 6.613281 0 12-5.386719 12-12v-16c0-6.625-5.386719-12-12-12zm0 0"/><path d="m371.105469 360.433594h-8v-44h-8v-8h12c2.207031 0 4 1.789062 4 4zm0 0"/><path d="m287.105469 436.433594c-11.035157 0-20-8.976563-20-20v-16c0-11.027344 8.964843-20 20-20 11.03125 0 20 8.972656 20 20v16c0 11.023437-8.96875 20-20 20zm0-48c-6.617188 0-12 5.382812-12 12v16c0 6.613281 5.382812 12 12 12 6.613281 0 12-5.386719 12-12v-16c0-6.625-5.386719-12-12-12zm0 0"/><path d="m251.105469 432.433594h-8v-44h-8v-8h12c2.207031 0 4 1.789062 4 4zm0 0"/><path d="m331.105469 432.433594h-8v-44h-8v-8h12c2.207031 0 4 1.789062 4 4zm0 0"/><path d="m367.105469 436.433594c-11.035157 0-20-8.976563-20-20v-16c0-11.027344 8.964843-20 20-20 11.03125 0 20 8.972656 20 20v16c0 11.023437-8.96875 20-20 20zm0-48c-6.617188 0-12 5.382812-12 12v16c0 6.613281 5.382812 12 12 12 6.613281 0 12-5.386719 12-12v-16c0-6.625-5.386719-12-12-12zm0 0"/><path d="m411.105469 432.433594h-8v-44h-8v-8h12c2.207031 0 4 1.789062 4 4zm0 0"/></g></svg>
